<?xml version="1.0" encoding="UTF-8"?>
<svg viewBox="0 0 28 28" xmlns="http://www.w3.org/2000/svg">
<title>Duke</title>
<g transform="matrix(.054403 0 0 .054403 -2.6094 -7.9436)" fill="none" stroke="#979797" stroke-width="34.125">
<path d="m296.76 168.62s-49 93-73 152-50 125-59 163-22.31 100-21 120c1.143 17.454 1.205 20.431 9.204 32.432 4.795 7.193 11.988 11.09 22.796 11.568 12.987 0.575 32.587-10.781 46-18 14.222-7.654 29.807-20.542 52-23 23.875-2.645 36-4 56 2s30.6 9.75 41 17c11.66 8.128 12.078 10.732 20.18 17.014 9.682 7.505 15.1 8.682 25.291 9.06s18.117-2.265 24.535-12.456c6.416-10.191 11.004-26.263 12.803-40.049 1.617-12.386 0.031-56.205-6.764-87.157s-5.66-25.289-12.455-53.6-18.496-68.699-40.012-119.28-27.555-63.415-44.541-97.764-34.727-62.282-39.256-69.831c-4.531-7.55-8.119-14.639-13.781-2.938z"/>
<ellipse cx="307.65" cy="385.4" rx="74.43" ry="65.268"/>
<path d="m181.11 429.8c-31.249 10.518-56.295 24.237-72.221 42.589-5.1649 7.8743-3.0701 20.131-3.0909 22.112 8.5377 32.793 20.866 41.451 42.271 57.097"/>
<path d="m429.5 432.91c31.249 10.518 56.295 24.237 72.221 42.589 5.1649 7.8743 3.0701 20.131 3.0909 22.112-8.5377 32.793-20.866 41.451-42.271 57.097"/>
</g>
</svg>
