<?xml version="1.0" encoding="UTF-8"?>
<svg viewBox="0 0 16 16" xmlns="http://www.w3.org/2000/svg">
<path transform="scale(.5)" d="m15.889 1.2441c-1.7251 0.0081-3.4252 0.71827-4.6426 1.9414-1.2173 1.223-1.9199 2.9251-1.9199 4.6504v0.4082h-0.59766l-3.1035-3.1211a0.38023 0.38023 0 0 0 0-0.0019531c-0.27988-0.27953-0.79043-0.27953-1.0703 0l-1.1855 1.1836a0.38023 0.38023 0 0 0-0.0019531 0c-0.27953 0.27988-0.27953 0.79043 0 1.0703l2.9102 2.9199c-0.61439 1.7808-0.95802 3.657-0.95117 5.541 0 0.16906 0.00955 0.33009 0.015625 0.49414h-3.3418c-0.39469 9.28e-4 -0.75493 0.36116-0.75586 0.75586v1.6719c9.277e-4 0.3947 0.36117 0.75493 0.75586 0.75586h3.7617c0.34664 1.5791 0.89953 3.0415 1.6387 4.3359l-3.5371 3.541c-0.27953 0.27988-0.27953 0.79043 0 1.0703a0.38023 0.38023 0 0 0 0.0019532 0l1.1855 1.1836c0.27988 0.27953 0.79043 0.27953 1.0703 0a0.38023 0.38023 0 0 0 0-0.001953l3.2109-3.2188c1.7947 1.8411 4.0752 3.0078 6.5859 3.0078 2.47 0 4.7151-1.13 6.4961-2.916l3.3008 3.3145a0.38023 0.38023 0 0 0 0 0.001953c0.27944 0.27909 0.7882 0.27821 1.0684 0l1.1875-1.1797a0.38023 0.38023 0 0 0 0.001953 0c0.27909-0.27944 0.27821-0.7882 0-1.0684v-0.001953l-3.6035-3.6191c0.77249-1.3228 1.3488-2.8232 1.7051-4.4492h3.7656c0.39469-9.28e-4 0.75493-0.36116 0.75586-0.75586v-1.6719c-9.28e-4 -0.3947-0.36116-0.75493-0.75586-0.75586h-3.3438c0.0069-0.16277 0.017098-0.32202 0.017578-0.48828 0.0078-1.9114-0.34651-3.812-0.97852-5.6152l2.8242-2.8242c0.27953-0.27988 0.27953-0.79043 0-1.0703a0.38023 0.38023 0 0 0-0.001953 0l-1.1816-1.1797c-0.27988-0.27953-0.79043-0.27953-1.0703 0l-3.0957 3.0918h-0.5v-0.4082c0-1.7355-0.71107-3.4473-1.9414-4.6719-1.2302-1.2245-2.944-1.928-4.6797-1.9199zm0.041016 2.7969c0.99113 0.002546 1.976 0.37898 2.6758 1.0234 0.69981 0.64445 1.1074 1.5508 1.1074 2.4609v0.73047h-7.5898v-0.73047c-1.9e-5 -0.91342 0.41094-1.8219 1.1152-2.4668 0.70428-0.64493 1.6967-1.0202 2.6914-1.0176zm-6.7871 7.2461h13.551c0.47876 1.369 0.77734 2.8986 0.77734 4.5488 0 3.0919-0.97434 5.8136-2.4238 7.6992-1.4492 1.884-3.2694 2.8535-5.1289 2.8535-1.8573-2e-6 -3.6757-0.96937-5.125-2.8535l-0.001953 0.003906a0.40922 0.40922 0 0 0-0.001954-0.003906c-1.4512-1.8855-2.4238-4.6072-2.4238-7.6992 0-1.6513 0.29714-3.1802 0.77734-4.5488zm14.48 12.523h0.003906a0.38023 0.38023 0 0 0-0.021484 0.029297l0.017578-0.029297zm-13.158 0.38281c0.003455 3.3e-5 5.06e-4 -3.3e-5 0.003906 0 1.2539 0.0121-1.2578 0.0121-0.003906 0z" fill-rule="evenodd"/>
</svg>
