<svg viewBox="0 0 16 16" xmlns="http://www.w3.org/2000/svg"><path d="M5.26.778a.48.48 0 0 1 .678 0l.771.77A3.188 3.188 0 0 1 8 1.278c.46 0 .896.096 1.29.27l.772-.77a.48.48 0 0 1 .667.011.48.48 0 0 1 .011.667l-.621.623a3.196 3.196 0 0 1 1.082 2.4v.706A1.764 1.764 0 0 1 12.43 6.45l1.279-.64a.48.48 0 0 1 .429.86l-1.655.828V9.28l2.08.002a.48.48 0 0 1 0 .96h-2.08v.639c0 .364-.044.726-.13 1.08l.025.011 1.76.88a.48.48 0 1 1-.429.86l-1.689-.845A4.48 4.48 0 0 1 8 15.363a4.48 4.48 0 0 1-3.968-2.396l-1.765.756a.481.481 0 0 1-.682-.497.481.481 0 0 1 .304-.385l1.79-.768a4.466 4.466 0 0 1-.16-1.192v-.638H1.436a.48.48 0 0 1 0-.96h2.081V7.497l-1.655-.829a.48.48 0 0 1 .43-.86l1.278.64A1.765 1.765 0 0 1 4.8 5.186V4.48a3.195 3.195 0 0 1 1.082-2.4l-.621-.623a.48.48 0 0 1 0-.678zm-.781 6.101v4.002a3.521 3.521 0 1 0 7.042 0V6.879a.8.8 0 0 0-.8-.8H5.28a.8.8 0 0 0-.8.8zm1.28-1.76h4.482v-.64a2.24 2.24 0 1 0-4.482 0z" fill="currentColor" stroke="#000" stroke-width=".3"/></svg>
